<svg id="visual" viewBox="0 0 960 540" width="960" height="540" xmlns="http://www.w3.org/2000/svg" xmlns:xlink="http://www.w3.org/1999/xlink" version="1.1"><rect x="0" y="0" width="960" height="540" fill="#eefdf4"></rect><path d="M0 373L20 372C40 371 80 369 120 356.8C160 344.7 200 322.3 240 317.7C280 313 320 326 360 342.5C400 359 440 379 480 390.3C520 401.7 560 404.3 600 405C640 405.7 680 404.3 720 396C760 387.7 800 372.3 840 376.7C880 381 920 405 940 417L960 429L960 541L940 541C920 541 880 541 840 541C800 541 760 541 720 541C680 541 640 541 600 541C560 541 520 541 480 541C440 541 400 541 360 541C320 541 280 541 240 541C200 541 160 541 120 541C80 541 40 541 20 541L0 541Z" fill="#fff4b6"></path><path d="M0 436L20 428.3C40 420.7 80 405.3 120 403.8C160 402.3 200 414.7 240 409.2C280 403.7 320 380.3 360 368C400 355.7 440 354.3 480 361C520 367.7 560 382.3 600 389C640 395.7 680 394.3 720 398.3C760 402.3 800 411.7 840 422C880 432.3 920 443.7 940 449.3L960 455L960 541L940 541C920 541 880 541 840 541C800 541 760 541 720 541C680 541 640 541 600 541C560 541 520 541 480 541C440 541 400 541 360 541C320 541 280 541 240 541C200 541 160 541 120 541C80 541 40 541 20 541L0 541Z" fill="#dae8a6"></path><path d="M0 394L20 395.8C40 397.7 80 401.3 120 410.5C160 419.7 200 434.3 240 438.2C280 442 320 435 360 434.5C400 434 440 440 480 437.3C520 434.7 560 423.3 600 422.5C640 421.7 680 431.3 720 433.5C760 435.7 800 430.3 840 435C880 439.7 920 454.3 940 461.7L960 469L960 541L940 541C920 541 880 541 840 541C800 541 760 541 720 541C680 541 640 541 600 541C560 541 520 541 480 541C440 541 400 541 360 541C320 541 280 541 240 541C200 541 160 541 120 541C80 541 40 541 20 541L0 541Z" fill="#b3dc9d"></path><path d="M0 456L20 462.5C40 469 80 482 120 482C160 482 200 469 240 457.2C280 445.3 320 434.7 360 438.2C400 441.7 440 459.3 480 470.5C520 481.7 560 486.3 600 490C640 493.7 680 496.3 720 493.2C760 490 800 481 840 470.2C880 459.3 920 446.7 940 440.3L960 434L960 541L940 541C920 541 880 541 840 541C800 541 760 541 720 541C680 541 640 541 600 541C560 541 520 541 480 541C440 541 400 541 360 541C320 541 280 541 240 541C200 541 160 541 120 541C80 541 40 541 20 541L0 541Z" fill="#88cf99"></path><path d="M0 468L20 473.7C40 479.3 80 490.7 120 498.8C160 507 200 512 240 507.5C280 503 320 489 360 489.3C400 489.7 440 504.3 480 512.2C520 520 560 521 600 519.2C640 517.3 680 512.7 720 510.3C760 508 800 508 840 504.7C880 501.3 920 494.7 940 491.3L960 488L960 541L940 541C920 541 880 541 840 541C800 541 760 541 720 541C680 541 640 541 600 541C560 541 520 541 480 541C440 541 400 541 360 541C320 541 280 541 240 541C200 541 160 541 120 541C80 541 40 541 20 541L0 541Z" fill="#55c29b"></path></svg>